<?xml version="1.0" encoding="utf-8"?>
<!-- Generator: Adobe Illustrator 16.0.0, SVG Export Plug-In . SVG Version: 6.00 Build 0)  -->
<!DOCTYPE svg PUBLIC "-//W3C//DTD SVG 1.1//EN" "http://www.w3.org/Graphics/SVG/1.1/DTD/svg11.dtd">
<svg version="1.1" xmlns="http://www.w3.org/2000/svg" xmlns:xlink="http://www.w3.org/1999/xlink" x="0px" y="0px" width="360px"
	 height="360px" viewBox="0 0 360 360" enable-background="new 0 0 360 360" xml:space="preserve">
<g id="Found">
	<circle fill="#FFFFFF" cx="182.708" cy="118.22" r="86.755"/>
	<path fill-rule="evenodd" clip-rule="evenodd" fill="#59341B" d="M167.761,56.229c11.876-2.436,11.075,13.816,10.817,24.224
		c-0.255,10.259-0.808,20.542-12.817,18.983c-10.06-1.303-14.975-12.057-14.987-21.846c-0.011-9.317,8.75-18.164,16.01-21.332
		C167.031,56.15,167.49,56.286,167.761,56.229"/>
	<path fill-rule="evenodd" clip-rule="evenodd" fill="#59341B" d="M197.087,55.382c6.844,2.609,12.844,9.86,15.824,17.029
		c4.794,11.517-5.342,26.382-17.812,26.741c-4.069,0.118-8.527-1.205-9.898-3.942c-1.864-3.742-0.907-11.667-0.837-17.747
		c0.106-10.281,0.615-17.847,7.524-21.369C192.974,55.546,194.338,55.279,197.087,55.382"/>
	<path fill-rule="evenodd" clip-rule="evenodd" fill="#59341B" d="M134.061,85.97c7.142-0.617,11.611,6.301,15.318,10.838
		c1.963,2.402,3.565,4.434,5.425,7.176c1.588,2.347,4.541,5.826,4.476,8.048c-0.12,3.867-6.43,7.296-8.863,9.281
		c-2.812,2.297-5.968,7.193-11.87,6.831c-5.164-0.32-12.475-9.911-13.198-16.543C124.336,102.304,128.793,89.463,134.061,85.97"/>
	<path fill-rule="evenodd" clip-rule="evenodd" fill="#59341B" d="M223.764,86.763c8.54-1.401,15.87,12.217,15.329,22.402
		c-0.487,9.114-8.002,18.398-16.095,18.513c-3.519,0.049-6.542-2.033-8.918-3.973c-2.119-1.726-5.377-4.185-6.065-6.593
		c-1.433-5.017,2.833-12.465,5.052-17.067C215.297,95.403,217.881,87.728,223.764,86.763"/>
	<path fill-rule="evenodd" clip-rule="evenodd" fill="#59341B" d="M182.71,111.073c7.82-1.399,11.392,3.093,16.033,6.588
		c8.934,6.725,21.674,16.36,26.636,24.614c8.993,14.957-9.298,29.098-28.765,25.93c-2.449-0.397-4.924-1.654-7.274-2.61
		c-1.921-0.781-4.738-2.53-7.277-2.608c-3.199-0.104-7.358,2.175-11.068,3.14c-6.284,1.629-15.135,3.436-21.915,1.477
		c-6.231-1.8-12.575-7.477-13.344-13.151c-0.733-5.434,2.024-9.581,4.996-13.965c6.576-9.707,12.433-14.24,23.865-20.993
		C169.766,116.44,177.062,112.086,182.71,111.073"/>
	<path fill="#8EBD46" d="M180.706,2.033h-0.004c-63.695,0-115.329,51.385-115.329,114.771c0,56.206,37.049,84.395,68.313,137.841
		c36.174,61.844,47.015,103.168,47.015,103.168s11.938-42.136,47.02-103.168c30.853-53.683,68.313-81.635,68.313-137.841
		C296.035,53.418,244.396,2.033,180.706,2.033 M182.28,202.438c-47.303,0-85.649-38.193-85.649-85.308
		c0-47.112,38.346-85.303,85.649-85.303c47.305,0,85.65,38.191,85.65,85.303C267.931,164.245,229.585,202.438,182.28,202.438"/>
</g>
<g id="Lost" display="none">
	<circle display="inline" fill="#FFFFFF" cx="183.033" cy="116.895" r="86.755"/>
	<path display="inline" fill-rule="evenodd" clip-rule="evenodd" fill="#59341B" d="M168.271,56.195
		c11.876-2.436,11.074,13.816,10.816,24.224c-0.255,10.259-0.808,20.542-12.816,18.983c-10.061-1.303-14.975-12.057-14.987-21.846
		c-0.011-9.317,8.749-18.164,16.01-21.332C167.541,56.117,168,56.252,168.271,56.195"/>
	<path display="inline" fill-rule="evenodd" clip-rule="evenodd" fill="#59341B" d="M197.597,55.349
		c6.844,2.609,12.844,9.86,15.824,17.029c4.794,11.517-5.342,26.382-17.812,26.741c-4.069,0.118-8.527-1.205-9.898-3.942
		c-1.864-3.742-0.907-11.667-0.837-17.747c0.106-10.281,0.615-17.847,7.524-21.369C193.483,55.513,194.848,55.246,197.597,55.349"/>
	<path display="inline" fill-rule="evenodd" clip-rule="evenodd" fill="#59341B" d="M134.571,85.937
		c7.142-0.617,11.611,6.301,15.318,10.838c1.963,2.402,3.565,4.434,5.426,7.176c1.588,2.347,4.541,5.826,4.475,8.048
		c-0.119,3.867-6.43,7.296-8.862,9.281c-2.812,2.297-5.968,7.193-11.87,6.831c-5.164-0.32-12.475-9.911-13.198-16.543
		C124.846,102.271,129.303,89.43,134.571,85.937"/>
	<path display="inline" fill-rule="evenodd" clip-rule="evenodd" fill="#59341B" d="M224.273,86.73
		c8.54-1.401,15.87,12.217,15.329,22.402c-0.487,9.114-8.002,18.398-16.095,18.513c-3.519,0.049-6.542-2.033-8.918-3.973
		c-2.119-1.726-5.377-4.185-6.065-6.593c-1.433-5.017,2.833-12.465,5.052-17.067C215.807,95.37,218.391,87.694,224.273,86.73"/>
	<path display="inline" fill-rule="evenodd" clip-rule="evenodd" fill="#59341B" d="M183.22,111.04
		c7.82-1.399,11.392,3.093,16.033,6.588c8.934,6.725,21.674,16.36,26.636,24.614c8.993,14.957-9.298,29.098-28.765,25.93
		c-2.449-0.397-4.924-1.654-7.274-2.61c-1.921-0.781-4.738-2.53-7.277-2.608c-3.199-0.104-7.358,2.175-11.068,3.14
		c-6.284,1.629-15.135,3.436-21.915,1.477c-6.231-1.8-12.575-7.477-13.344-13.151c-0.733-5.434,2.024-9.581,4.995-13.965
		c6.576-9.707,12.434-14.24,23.865-20.993C170.275,116.407,177.572,112.053,183.22,111.04"/>
	<path display="inline" fill="#B52025" d="M181.216,2h-0.004C117.517,2,65.883,53.385,65.883,116.771
		c0,56.206,37.049,84.395,68.313,137.841c36.174,61.844,47.015,103.168,47.015,103.168s11.938-42.136,47.02-103.168
		c30.853-53.683,68.313-81.635,68.313-137.841C296.545,53.385,244.906,2,181.216,2 M182.79,202.404
		c-47.303,0-85.649-38.193-85.649-85.308c0-47.112,38.346-85.303,85.649-85.303c47.305,0,85.65,38.191,85.65,85.303
		C268.44,164.211,230.095,202.404,182.79,202.404"/>
</g>
<g id="Sighting" display="none">
	<g display="inline">
		<circle fill="#FFFFFF" cx="183.119" cy="117.147" r="86.755"/>
		<path fill-rule="evenodd" clip-rule="evenodd" fill="#59341B" d="M168.271,56.195c11.876-2.436,11.074,13.816,10.816,24.224
			c-0.255,10.259-0.808,20.542-12.816,18.983c-10.061-1.303-14.975-12.057-14.987-21.846c-0.011-9.317,8.749-18.164,16.01-21.332
			C167.541,56.117,168,56.252,168.271,56.195"/>
		<path fill-rule="evenodd" clip-rule="evenodd" fill="#59341B" d="M197.597,55.349c6.844,2.609,12.844,9.86,15.824,17.029
			c4.794,11.517-5.342,26.382-17.812,26.741c-4.069,0.118-8.527-1.205-9.898-3.942c-1.864-3.742-0.907-11.667-0.837-17.747
			c0.106-10.281,0.615-17.847,7.524-21.369C193.483,55.513,194.848,55.246,197.597,55.349"/>
		<path fill-rule="evenodd" clip-rule="evenodd" fill="#59341B" d="M134.571,85.937c7.142-0.617,11.611,6.301,15.318,10.838
			c1.963,2.402,3.565,4.434,5.426,7.176c1.588,2.347,4.541,5.826,4.475,8.048c-0.119,3.867-6.43,7.296-8.862,9.281
			c-2.812,2.297-5.968,7.193-11.87,6.831c-5.164-0.32-12.475-9.911-13.198-16.543C124.846,102.271,129.303,89.43,134.571,85.937"/>
		<path fill-rule="evenodd" clip-rule="evenodd" fill="#59341B" d="M224.273,86.73c8.54-1.401,15.87,12.217,15.329,22.402
			c-0.487,9.114-8.002,18.398-16.095,18.513c-3.519,0.049-6.542-2.033-8.918-3.973c-2.119-1.726-5.377-4.185-6.065-6.593
			c-1.433-5.017,2.833-12.465,5.052-17.067C215.807,95.37,218.391,87.694,224.273,86.73"/>
		<path fill-rule="evenodd" clip-rule="evenodd" fill="#59341B" d="M183.22,111.04c7.82-1.399,11.392,3.093,16.033,6.588
			c8.934,6.725,21.674,16.36,26.636,24.614c8.993,14.957-9.298,29.098-28.765,25.93c-2.449-0.397-4.924-1.654-7.274-2.61
			c-1.921-0.781-4.738-2.53-7.277-2.608c-3.199-0.104-7.358,2.175-11.068,3.14c-6.284,1.629-15.135,3.436-21.915,1.477
			c-6.231-1.8-12.575-7.477-13.344-13.151c-0.733-5.434,2.024-9.581,4.995-13.965c6.576-9.707,12.434-14.24,23.865-20.993
			C170.275,116.407,177.572,112.053,183.22,111.04"/>
		<path fill="#FACE41" d="M181.216,2h-0.004C117.517,2,65.883,53.385,65.883,116.771c0,56.206,37.049,84.395,68.313,137.841
			c36.174,61.844,47.015,103.168,47.015,103.168s11.938-42.136,47.02-103.168c30.853-53.683,68.313-81.635,68.313-137.841
			C296.545,53.385,244.906,2,181.216,2 M182.79,202.404c-47.303,0-85.649-38.193-85.649-85.308
			c0-47.112,38.346-85.303,85.649-85.303c47.305,0,85.65,38.191,85.65,85.303C268.44,164.211,230.095,202.404,182.79,202.404"/>
	</g>
</g>
</svg>
